<?xml version="1.0" encoding="UTF-8" standalone="no"?><!DOCTYPE svg PUBLIC "-//W3C//DTD SVG 1.1//EN" "http://www.w3.org/Graphics/SVG/1.1/DTD/svg11.dtd"><svg width="100%" height="100%" viewBox="0 0 6 6" version="1.1" xmlns="http://www.w3.org/2000/svg" xmlns:xlink="http://www.w3.org/1999/xlink" xml:space="preserve" xmlns:serif="http://www.serif.com/" style="fill-rule:evenodd;clip-rule:evenodd;stroke-linejoin:round;stroke-miterlimit:2;"><rect id="icon_lane_hide" x="0" y="0" width="5.76" height="5.76" style="fill:none;"/><path d="M5.51,2.4l0,0.96c0,0.265 -0.215,0.48 -0.48,0.48l-4.31,0c-0.265,0 -0.48,-0.215 -0.48,-0.48l0,-0.96c0,-0.265 0.215,-0.48 0.48,-0.48l3.12,-0l0,0.24l-0.595,0l0.72,1.44l0.931,-0l-0.6,-1.2l0.269,-0l0.584,1.169c0.072,-0.042 0.121,-0.12 0.121,-0.209l0,-0.96l0.24,-0Zm-3.945,1.2l0.931,-0l-0.72,-1.44l-0.931,-0l0.72,1.44Zm-0.971,-1.404c-0.068,0.042 -0.114,0.118 -0.114,0.204l0,0.96c0,0.132 0.108,0.24 0.24,0.24l0.576,-0l-0.702,-1.404Zm2.171,1.404l0.931,-0l-0.72,-1.44l-0.931,-0l0.72,1.44Zm2.755,-1.92l0,0.48l-1.44,-0l0,-0.48l1.44,-0Z"/></svg>