<?xml version="1.0" encoding="UTF-8" standalone="no"?><!DOCTYPE svg PUBLIC "-//W3C//DTD SVG 1.1//EN" "http://www.w3.org/Graphics/SVG/1.1/DTD/svg11.dtd"><svg width="100%" height="100%" viewBox="0 0 6 6" version="1.1" xmlns="http://www.w3.org/2000/svg" xmlns:xlink="http://www.w3.org/1999/xlink" xml:space="preserve" xmlns:serif="http://www.serif.com/" style="fill-rule:evenodd;clip-rule:evenodd;stroke-linejoin:round;stroke-miterlimit:2;"><rect id="icon_touch" x="0.005" y="0" width="5.76" height="5.76" style="fill:none;"/><path id="touch" d="M5.038,3.84l-4.316,0c-0.265,0 -0.48,-0.215 -0.48,-0.48l0,-0.96c0,-0.265 0.215,-0.48 0.48,-0.48l4.316,0c0.265,0 0.48,0.215 0.48,0.48l-0,0.96c-0,0.265 -0.215,0.48 -0.48,0.48Zm-4.08,-1.68l-0.236,0c-0.132,0 -0.24,0.108 -0.24,0.24l0,0.96c0,0.132 0.108,0.24 0.24,0.24l0.236,-0l-0,-1.44Zm3.84,1.44l0.24,-0c0.132,-0 0.24,-0.108 0.24,-0.24l-0,-0.96c-0,-0.132 -0.108,-0.24 -0.24,-0.24l-0.24,0l-0,1.44Z"/></svg>