<?xml version="1.0" encoding="UTF-8" standalone="no"?><!DOCTYPE svg PUBLIC "-//W3C//DTD SVG 1.1//EN" "http://www.w3.org/Graphics/SVG/1.1/DTD/svg11.dtd"><svg width="100%" height="100%" viewBox="0 0 6 6" version="1.1" xmlns="http://www.w3.org/2000/svg" xmlns:xlink="http://www.w3.org/1999/xlink" xml:space="preserve" xmlns:serif="http://www.serif.com/" style="fill-rule:evenodd;clip-rule:evenodd;stroke-linejoin:round;stroke-miterlimit:2;"><rect id="icon_slide_ccw" x="0.005" y="0" width="5.76" height="5.76" style="fill:none;"/><path d="M3.56,0.96l-0.647,-0.606l-1.033,0.139l0.577,0.467l-0.577,0.467l1.033,0.139l0.647,-0.606Zm-0.351,0l-0.377,0.353l-0.369,-0.049l0.375,-0.304l-0.375,-0.304l0.369,-0.049l0.377,0.353Zm2.061,0l-0.72,-0.72l-1.2,0.1l0.783,0.62l-0.783,0.62l1.2,0.1l0.72,-0.72Zm-0.339,0l-0.472,0.472l-0.484,-0.041l0.544,-0.431l-0.544,-0.431l0.484,-0.041l0.472,0.472Zm-3.045,0l-0.475,-0.531l-0.95,0.124l0.316,0.407l-0.316,0.407l0.95,0.124l0.475,-0.531Zm-0.322,0l-0.247,0.277l-0.41,-0.054l0.173,-0.223l-0.173,-0.223l0.41,-0.054l0.247,0.277Zm-0.844,2.88l4.315,0c0.265,0 0.48,-0.215 0.48,-0.48l0,-0.96c0,-0.265 -0.215,-0.48 -0.48,-0.48l-4.315,0c-0.265,0 -0.48,0.215 -0.48,0.48l-0,0.96c-0,0.265 0.215,0.48 0.48,0.48Zm0.24,-0.24l-0.24,0c-0.132,0 -0.24,-0.108 -0.24,-0.24l-0,-0.96c-0,-0.132 0.108,-0.24 0.24,-0.24l0.24,0l-0,1.44Zm3.84,-1.44l0.235,0c0.133,0 0.24,0.108 0.24,0.24l0,0.96c0,0.132 -0.107,0.24 -0.24,0.24l-0.235,0l-0,-1.44Z"/></svg>