<?xml version="1.0" encoding="UTF-8" standalone="no"?><!DOCTYPE svg PUBLIC "-//W3C//DTD SVG 1.1//EN" "http://www.w3.org/Graphics/SVG/1.1/DTD/svg11.dtd"><svg width="100%" height="100%" viewBox="0 0 8 3" version="1.1" xmlns="http://www.w3.org/2000/svg" xmlns:xlink="http://www.w3.org/1999/xlink" xml:space="preserve" xmlns:serif="http://www.serif.com/" style="fill-rule:evenodd;clip-rule:evenodd;stroke-linejoin:round;stroke-miterlimit:2;"><rect id="icon_chain_lightred" x="-0" y="0" width="7.68" height="2.88" style="fill:none;"/><g id="Chain-Light-Red" serif:id="Chain Light Red"><g id="Bodies"><rect id="Light-Red" serif:id="Light Red" x="0.48" y="0.48" width="6.72" height="1.92" style="fill:#ff3800;"/></g><rect id="Shading" x="0.48" y="0.48" width="6.72" height="1.92" style="fill:url(#_Linear1);"/><path id="Stripes" d="M6.48,0.48l-0,1.92l-0.96,0l0.96,-1.92Zm-0.792,0l-0.96,1.92l-0.96,0l0.96,-1.92l0.96,0Zm-1.8,0l-0.96,1.92l-0.96,0l0.96,-1.92l0.96,0Zm-1.728,0l-0.96,1.92l-0,-1.92l0.96,0Z" style="fill-opacity:0.3;"/><path id="Caps" d="M7.2,0.48l-0,1.92l-0.72,0l-0,-1.92l0.72,0Zm-6,0l-0,1.92l-0.72,0l-0,-1.92l0.72,0Z" style="fill:url(#_Linear2);"/><path id="Outline" d="M7.44,0.742l-0,1.396c-0,0.277 -0.225,0.502 -0.502,0.502l-6.196,0c-0.277,0 -0.502,-0.225 -0.502,-0.502l-0,-1.396c-0,-0.277 0.225,-0.502 0.502,-0.502l6.196,0c0.277,0 0.502,0.225 0.502,0.502Z" style="fill:#fff;fill-opacity:0;"/><path d="M7.44,0.742l-0,1.396c-0,0.277 -0.225,0.502 -0.502,0.502l-6.196,0c-0.277,0 -0.502,-0.225 -0.502,-0.502l-0,-1.396c-0,-0.277 0.225,-0.502 0.502,-0.502l6.196,0c0.277,0 0.502,0.225 0.502,0.502Zm-0.24,-0c-0,-0.145 -0.117,-0.262 -0.262,-0.262l-6.196,0c-0.145,0 -0.262,0.117 -0.262,0.262l-0,1.396c-0,0.145 0.117,0.262 0.262,0.262l6.196,0c0.145,0 0.262,-0.117 0.262,-0.262l-0,-1.396Z" style="fill:#fff;"/></g><defs><linearGradient id="_Linear1" x1="0" y1="0" x2="1" y2="0" gradientUnits="userSpaceOnUse" gradientTransform="matrix(1.17566e-16,1.92,-1.92,1.17566e-16,3.84,0.48)"><stop offset="0" style="stop-color:#fff;stop-opacity:0.73"/><stop offset="0.17" style="stop-color:#fff;stop-opacity:0.22"/><stop offset="0.3" style="stop-color:#fff;stop-opacity:0"/><stop offset="0.3" style="stop-color:#000;stop-opacity:0"/><stop offset="0.58" style="stop-color:#000;stop-opacity:0.22"/><stop offset="0.7" style="stop-color:#000;stop-opacity:0.16"/><stop offset="0.82" style="stop-color:#000;stop-opacity:0"/><stop offset="0.83" style="stop-color:#fff;stop-opacity:0"/><stop offset="0.9" style="stop-color:#fff;stop-opacity:0.23"/><stop offset="1" style="stop-color:#fff;stop-opacity:0.78"/></linearGradient><linearGradient id="_Linear2" x1="0" y1="0" x2="1" y2="0" gradientUnits="userSpaceOnUse" gradientTransform="matrix(1.17566e-16,-1.92,0.96,5.8783e-17,6.72,2.4)"><stop offset="0" style="stop-color:#b7f2ff;stop-opacity:1"/><stop offset="0.1" style="stop-color:#6dccf5;stop-opacity:1"/><stop offset="0.21" style="stop-color:#22a5eb;stop-opacity:1"/><stop offset="0.5" style="stop-color:#0093e7;stop-opacity:1"/><stop offset="1" style="stop-color:#77cbfe;stop-opacity:1"/></linearGradient></defs></svg>