<?xml version="1.0" encoding="UTF-8" standalone="no"?><!DOCTYPE svg PUBLIC "-//W3C//DTD SVG 1.1//EN" "http://www.w3.org/Graphics/SVG/1.1/DTD/svg11.dtd"><svg width="100%" height="100%" viewBox="0 0 8 6" version="1.1" xmlns="http://www.w3.org/2000/svg" xmlns:xlink="http://www.w3.org/1999/xlink" xml:space="preserve" xmlns:serif="http://www.serif.com/" style="fill-rule:evenodd;clip-rule:evenodd;stroke-linejoin:round;stroke-miterlimit:2;"><rect id="icon_slide_ccw_lightblue" x="0" y="0" width="7.68" height="5.52" style="fill:none;"/><g id="Slide-Counterclockwise-Light-Blue" serif:id="Slide Counterclockwise Light Blue"><g id="Bodies"><rect id="Light-Blue" serif:id="Light Blue" x="0.48" y="3.12" width="6.72" height="1.92" style="fill:#229aff;"/></g><rect id="Shading" x="0.48" y="3.12" width="6.72" height="1.92" style="fill:url(#_Linear1);"/><path id="Caps" d="M7.2,3.12l-0,1.92l-0.72,-0l-0,-1.92l0.72,-0Zm-6,-0l-0,1.92l-0.72,-0l-0,-1.92l0.72,-0Z" style="fill:url(#_Linear2);"/><path id="Outline" d="M7.44,3.382l0,1.396c0,0.277 -0.225,0.502 -0.502,0.502l-6.196,-0c-0.277,-0 -0.502,-0.225 -0.502,-0.502l0,-1.396c0,-0.277 0.225,-0.502 0.502,-0.502l6.196,-0c0.277,-0 0.502,0.225 0.502,0.502Z" style="fill:#fff;fill-opacity:0;"/><path d="M7.44,3.382l0,1.396c0,0.277 -0.225,0.502 -0.502,0.502l-6.196,-0c-0.277,-0 -0.502,-0.225 -0.502,-0.502l0,-1.396c0,-0.277 0.225,-0.502 0.502,-0.502l6.196,-0c0.277,-0 0.502,0.225 0.502,0.502Zm-0.24,-0c0,-0.145 -0.117,-0.262 -0.262,-0.262l-6.196,-0c-0.145,-0 -0.262,0.117 -0.262,0.262l0,1.396c0,0.145 0.117,0.262 0.262,0.262l6.196,-0c0.145,-0 0.262,-0.117 0.262,-0.262l0,-1.396Z" style="fill:#fff;"/><g id="Slide"><g id="Bodies1" serif:id="Bodies"><path id="Light-Blue1" serif:id="Light Blue" d="M0.885,1.555l0.846,0.129l0.375,-0.378l-0.391,-0.349l-0.83,0.097l0.252,0.252l-0.252,0.249Zm2.013,0.206l1.041,0.149l0.711,-0.604l-0.651,-0.559l-1.097,0.105l0.361,0.454l-0.365,0.455Zm2.167,0.385l0.996,0.114l1.045,-0.954l-1.077,-0.877l-0.964,0.096l0.686,0.781l-0.686,0.84Z" style="fill:#219afe;"/></g><path id="Highlight" d="M5.773,2.078l0.24,0.036l0.797,-0.801l-0.82,-0.728l-0.24,0.03l0.592,0.697l-0.569,0.766Z" style="fill:#fff;fill-opacity:0.8;"/><path id="Outline1" serif:id="Outline" d="M0.716,1.384l0.08,-0.079l-0.432,-0.432l1.43,-0.166l0.66,0.588l-0.638,0.644l-1.44,-0.219l0.34,-0.336Zm0.169,0.171l0.846,0.129l0.375,-0.378l-0.391,-0.349l-0.83,0.097l0.252,0.252l-0.252,0.249Zm1.826,0.055l0.245,-0.305l-0.517,-0.65l1.639,-0.156l0.942,0.808l-1.009,0.856l-1.563,-0.225l0.263,-0.328Zm0.187,0.151l1.041,0.149l0.711,-0.604l-0.651,-0.559l-1.097,0.105l0.361,0.454l-0.365,0.455Zm1.981,0.233l0.557,-0.683l-0.86,-0.978l1.528,-0.153l1.37,1.115l-1.332,1.215l-1.541,-0.175l0.278,-0.341Zm0.186,0.152l0.996,0.114l1.045,-0.954l-1.077,-0.877l-0.964,0.096l0.686,0.781l-0.686,0.84Z" style="fill:#fff;"/></g></g><defs><linearGradient id="_Linear1" x1="0" y1="0" x2="1" y2="0" gradientUnits="userSpaceOnUse" gradientTransform="matrix(1.17566e-16,1.92,-1.92,1.17566e-16,3.84,3.12)"><stop offset="0" style="stop-color:#fff;stop-opacity:0.73"/><stop offset="0.17" style="stop-color:#fff;stop-opacity:0.22"/><stop offset="0.3" style="stop-color:#fff;stop-opacity:0"/><stop offset="0.3" style="stop-color:#000;stop-opacity:0"/><stop offset="0.58" style="stop-color:#000;stop-opacity:0.22"/><stop offset="0.7" style="stop-color:#000;stop-opacity:0.16"/><stop offset="0.82" style="stop-color:#000;stop-opacity:0"/><stop offset="0.83" style="stop-color:#fff;stop-opacity:0"/><stop offset="0.9" style="stop-color:#fff;stop-opacity:0.23"/><stop offset="1" style="stop-color:#fff;stop-opacity:0.78"/></linearGradient><linearGradient id="_Linear2" x1="0" y1="0" x2="1" y2="0" gradientUnits="userSpaceOnUse" gradientTransform="matrix(1.17566e-16,-1.92,0.96,5.8783e-17,6.72,5.04)"><stop offset="0" style="stop-color:#b7f2ff;stop-opacity:1"/><stop offset="0.1" style="stop-color:#6dccf5;stop-opacity:1"/><stop offset="0.21" style="stop-color:#22a5eb;stop-opacity:1"/><stop offset="0.5" style="stop-color:#0093e7;stop-opacity:1"/><stop offset="1" style="stop-color:#77cbfe;stop-opacity:1"/></linearGradient></defs></svg>