<?xml version="1.0" encoding="UTF-8" standalone="no"?>
<!DOCTYPE svg PUBLIC "-//W3C//DTD SVG 1.1//EN" "http://www.w3.org/Graphics/SVG/1.1/DTD/svg11.dtd">
<svg width="100%" height="100%" viewBox="0 0 512 512" version="1.1" xmlns="http://www.w3.org/2000/svg" xmlns:xlink="http://www.w3.org/1999/xlink" xml:space="preserve" xmlns:serif="http://www.serif.com/" style="fill-rule:evenodd;clip-rule:evenodd;stroke-linejoin:round;stroke-miterlimit:2;">
    <path d="M229.909,411.852C155.103,399.4 98,334.316 98,256C98,168.797 168.797,98 256,98C334.316,98 399.4,155.103 411.852,229.909L229.909,411.852ZM426.399,215.999C423.165,202.188 418.293,189.005 411.999,176.665L482.216,136.126C497.196,164.313 507.062,195.626 510.572,228.822L502.995,221.117C492.198,210.137 477.463,203.925 462.064,203.86C449.085,203.805 436.541,208.122 426.399,215.999ZM497.641,340.679C493.368,352.856 488.2,364.615 482.216,375.874L469.631,368.608L493.537,344.702L497.641,340.679ZM455.428,382.81L472.469,392.648C451.919,425.114 424.269,452.648 391.708,473.061L381.997,456.241L455.428,382.81ZM367.795,470.443L374.892,482.736C363.893,488.52 352.423,493.527 340.555,497.684L367.795,470.443ZM202.55,506.402C178.959,501.383 156.566,493.11 135.863,482.076L176.4,411.864C190.653,419.164 206.037,424.566 222.216,427.736L202.55,506.402ZM81.265,246.3L0.181,246.3C1.652,206.894 12.047,169.754 29.403,136.844L99.632,177.391C89.087,198.31 82.615,221.628 81.265,246.3ZM109.314,160.579L39.097,120.04C59.441,87.673 86.828,60.171 119.1,39.691L159.65,109.925C139.606,123.179 122.445,140.447 109.314,160.579ZM176.4,100.136L135.863,29.924C168.789,12.376 205.991,1.811 245.487,0.212L245.487,81.311C220.725,82.781 197.343,89.41 176.4,100.136ZM264.887,81.222L264.887,0.152C304.49,1.506 341.821,11.873 374.892,29.264L334.342,99.498C313.263,88.916 289.756,82.469 264.887,81.222ZM351.171,109.152L391.708,38.939C424.269,59.352 451.919,86.886 472.469,119.352L402.24,159.898C388.909,139.665 371.493,122.357 351.171,109.152ZM159.65,402.075L119.1,472.309C86.828,451.829 59.441,424.327 39.097,391.96L109.314,351.421C122.445,371.553 139.606,388.821 159.65,402.075ZM99.632,334.609L29.403,375.156C12.047,342.246 1.652,305.106 0.181,265.7L81.265,265.7C82.615,290.372 89.087,313.69 99.632,334.609ZM250,431L403,278L462,337L308,491L236,508.207L232,503L250,431ZM419,262L440.608,240.392C446.265,234.735 453.947,231.572 461.947,231.606C469.947,231.639 477.602,234.867 483.212,240.571L499.895,257.537C505.486,263.223 508.583,270.9 508.503,278.874C508.422,286.848 505.171,294.461 499.466,300.033L478,321L419,262Z" style="fill:white;"/>
</svg>
