<?xml version="1.0" encoding="UTF-8" standalone="no"?><!DOCTYPE svg PUBLIC "-//W3C//DTD SVG 1.1//EN" "http://www.w3.org/Graphics/SVG/1.1/DTD/svg11.dtd"><svg width="100%" height="100%" viewBox="0 0 6 6" version="1.1" xmlns="http://www.w3.org/2000/svg" xmlns:xlink="http://www.w3.org/1999/xlink" xml:space="preserve" xmlns:serif="http://www.serif.com/" style="fill-rule:evenodd;clip-rule:evenodd;stroke-linejoin:round;stroke-miterlimit:2;"><rect id="icon_chain" x="0.005" y="0" width="5.76" height="5.76" style="fill:none;"/><g id="Layer1"><path id="Caps" d="M1.445,3.84l-0.72,0c-0.265,0 -0.48,-0.215 -0.48,-0.48l-0,-0.96c-0,-0.265 0.215,-0.48 0.48,-0.48l0.24,0l-0,0.36l-0.24,0c-0.066,0 -0.12,0.054 -0.12,0.12l-0,0.96c-0,0.066 0.054,0.12 0.12,0.12l0.326,-0l0.394,-1.56l0.48,0l-0.48,1.92Zm3.27,-1.56l-0.39,1.56l-0.48,0l0.48,-1.92l0.72,0c0.265,0 0.48,0.215 0.48,0.48l-0,0.96c-0,0.265 -0.215,0.48 -0.48,0.48l-0.24,0l-0,-0.36l0.24,-0c0.066,-0 0.12,-0.054 0.12,-0.12l-0,-0.96c-0,-0.066 -0.054,-0.12 -0.12,-0.12l-0.33,0Zm-2.31,-0.36l0.48,0l-0.48,1.92l-0.48,0l0.48,-1.92Zm0.96,0l0.48,0l-0.48,1.92l-0.48,0l0.48,-1.92Z"/></g></svg>