<?xml version="1.0" encoding="UTF-8" standalone="no"?><!DOCTYPE svg PUBLIC "-//W3C//DTD SVG 1.1//EN" "http://www.w3.org/Graphics/SVG/1.1/DTD/svg11.dtd"><svg width="100%" height="100%" viewBox="0 0 6 6" version="1.1" xmlns="http://www.w3.org/2000/svg" xmlns:xlink="http://www.w3.org/1999/xlink" xml:space="preserve" xmlns:serif="http://www.serif.com/" style="fill-rule:evenodd;clip-rule:evenodd;stroke-linejoin:round;stroke-miterlimit:2;"><rect id="icon_hold" x="0.005" y="0" width="5.76" height="5.76" style="fill:none;"/><path id="Caps" d="M5.285,1.984c0.143,0.083 0.24,0.238 0.24,0.416l-0,0.96c-0,0.265 -0.215,0.48 -0.48,0.48l-4.32,0c-0.265,0 -0.48,-0.215 -0.48,-0.48l-0,-0.96c-0,-0.178 0.096,-0.333 0.24,-0.416l-0,-1.984l0.361,0l-0,1.92l4.073,0l-0,-1.92l0.366,0l-0,1.984Zm-0.48,0.296l-0,1.2l0.24,0c0.066,0 0.12,-0.054 0.12,-0.12l-0,-0.96c-0,-0.066 -0.054,-0.12 -0.12,-0.12l-0.24,0Zm-3.84,0l-0.24,0c-0.066,0 -0.12,0.054 -0.12,0.12l-0,0.96c-0,0.066 0.054,0.12 0.12,0.12l0.24,0l-0,-1.2Z"/></svg>