<?xml version="1.0" encoding="UTF-8" standalone="no"?><!DOCTYPE svg PUBLIC "-//W3C//DTD SVG 1.1//EN" "http://www.w3.org/Graphics/SVG/1.1/DTD/svg11.dtd"><svg width="100%" height="100%" viewBox="0 0 6 6" version="1.1" xmlns="http://www.w3.org/2000/svg" xmlns:xlink="http://www.w3.org/1999/xlink" xml:space="preserve" xmlns:serif="http://www.serif.com/" style="fill-rule:evenodd;clip-rule:evenodd;stroke-linejoin:round;stroke-miterlimit:2;"><rect id="icon_slide_clw" x="0.005" y="0" width="5.76" height="5.76" style="fill:none;"/><path id="Caps" d="M5.045,1.92c0.265,0 0.48,0.215 0.48,0.48l-0,0.96c-0,0.265 -0.215,0.48 -0.48,0.48l-4.32,0c-0.265,0 -0.48,-0.215 -0.48,-0.48l-0,-0.96c-0,-0.265 0.215,-0.48 0.48,-0.48l4.32,0Zm-4.08,1.56l-0,-1.2l-0.24,0c-0.066,0 -0.12,0.054 -0.12,0.12l-0,0.96c-0,0.066 0.054,0.12 0.12,0.12l0.24,0Zm3.84,0l0.24,0c0.066,0 0.12,-0.054 0.12,-0.12l-0,-0.96c-0,-0.066 -0.054,-0.12 -0.12,-0.12l-0.24,0l-0,1.2Zm-1.231,-2.52l-0.646,0.606l-1.034,-0.139l0.577,-0.467l-0.577,-0.467l1.034,-0.139l0.646,0.606Zm-0.351,-0l-0.376,-0.353l-0.369,0.049l0.374,0.304l-0.374,0.304l0.369,0.049l0.376,-0.353Zm-1.322,0l-0.475,0.531l-0.951,-0.124l0.316,-0.407l-0.316,-0.407l0.951,-0.124l0.475,0.531Zm-0.322,0l-0.248,-0.277l-0.41,0.054l0.174,0.223l-0.174,0.223l0.41,0.054l0.248,-0.277Zm3.706,0l-0.72,0.72l-1.2,-0.1l0.782,-0.62l-0.782,-0.62l1.2,-0.1l0.72,0.72Zm-0.34,-0l-0.471,-0.472l-0.485,0.041l0.545,0.431l-0.545,0.431l0.485,0.041l0.471,-0.472Z"/></svg>