<?xml version="1.0" encoding="UTF-8" standalone="no"?><!DOCTYPE svg PUBLIC "-//W3C//DTD SVG 1.1//EN" "http://www.w3.org/Graphics/SVG/1.1/DTD/svg11.dtd"><svg width="100%" height="100%" viewBox="0 0 6 6" version="1.1" xmlns="http://www.w3.org/2000/svg" xmlns:xlink="http://www.w3.org/1999/xlink" xml:space="preserve" xmlns:serif="http://www.serif.com/" style="fill-rule:evenodd;clip-rule:evenodd;stroke-linejoin:round;stroke-miterlimit:2;"><rect id="icon_snap_fwd" x="0" y="0" width="5.76" height="5.76" style="fill:none;"/><path id="Caps" d="M5.04,1.92c0.265,-0 0.48,0.215 0.48,0.48l0,0.96c0,0.265 -0.215,0.48 -0.48,0.48l-4.32,0c-0.265,0 -0.48,-0.215 -0.48,-0.48l0,-0.96c0,-0.265 0.215,-0.48 0.48,-0.48l4.32,-0Zm-4.08,1.56l0,-1.2l-0.24,-0c-0.066,-0 -0.12,0.054 -0.12,0.12l0,0.96c0,0.066 0.054,0.12 0.12,0.12l0.24,-0Zm3.84,-0l0.24,-0c0.066,-0 0.12,-0.054 0.12,-0.12l0,-0.96c0,-0.066 -0.054,-0.12 -0.12,-0.12l-0.24,-0l0,1.2Zm-0.96,-1.8l0,-0.96l0.6,-0.48l0.6,0.48l0,0.96l-0.6,-0.48l-0.6,0.48Zm0.24,-0.499l0.36,-0.288l0.36,0.288l0,-0.346l-0.36,-0.288l-0.36,0.288l-0,0.346Zm-3.36,0.499l-0,-0.96l0.6,-0.48l0.6,0.48l-0,0.96l-0.6,-0.48l-0.6,0.48Zm0.24,-0.499l0.36,-0.288l0.36,0.288l0,-0.346l-0.36,-0.288l-0.36,0.288l-0,0.346Zm1.44,0.499l0,-0.96l0.48,-0.48l0.48,0.48l0,0.96l-0.48,-0.48l-0.48,0.48Zm0.24,-0.579l0.24,-0.24l0.24,0.24l0,-0.282l-0.24,-0.24l-0.24,0.24l0,0.282Z"/></svg>