<?xml version="1.0" encoding="UTF-8" standalone="no"?><!DOCTYPE svg PUBLIC "-//W3C//DTD SVG 1.1//EN" "http://www.w3.org/Graphics/SVG/1.1/DTD/svg11.dtd"><svg width="100%" height="100%" viewBox="0 0 6 6" version="1.1" xmlns="http://www.w3.org/2000/svg" xmlns:xlink="http://www.w3.org/1999/xlink" xml:space="preserve" xmlns:serif="http://www.serif.com/" style="fill-rule:evenodd;clip-rule:evenodd;stroke-linejoin:round;stroke-miterlimit:2;"><rect id="icon_slide_ccw" x="0.005" y="0" width="5.76" height="5.76" style="fill:none;"/><path id="Caps" d="M5.045,3.84l-4.32,0c-0.265,0 -0.48,-0.215 -0.48,-0.48l-0,-0.96c-0,-0.265 0.215,-0.48 0.48,-0.48l4.32,0c0.265,0 0.48,0.215 0.48,0.48l-0,0.96c-0,0.265 -0.215,0.48 -0.48,0.48Zm-4.08,-1.56l-0.24,0c-0.066,0 -0.12,0.054 -0.12,0.12l-0,0.96c-0,0.066 0.054,0.12 0.12,0.12l0.24,0l-0,-1.2Zm3.84,0l-0,1.2l0.24,0c0.066,0 0.12,-0.054 0.12,-0.12l-0,-0.96c-0,-0.066 -0.054,-0.12 -0.12,-0.12l-0.24,0Zm-4.32,-1.32l0.72,-0.72l1.2,0.1l-0.783,0.62l0.783,0.62l-1.2,0.1l-0.72,-0.72Zm0.339,0l0.472,0.472l0.484,-0.041l-0.544,-0.431l0.544,-0.431l-0.484,-0.041l-0.472,0.472Zm1.371,0l0.647,-0.606l1.033,0.139l-0.577,0.467l0.577,0.467l-1.033,0.139l-0.647,-0.606Zm0.351,0l0.377,0.353l0.369,-0.049l-0.375,-0.304l0.375,-0.304l-0.369,-0.049l-0.377,0.353Zm1.323,0l0.475,-0.531l0.95,0.124l-0.315,0.407l0.315,0.407l-0.95,0.124l-0.475,-0.531Zm0.322,0l0.247,0.277l0.41,-0.054l-0.173,-0.223l0.173,-0.223l-0.41,-0.054l-0.247,0.277Z"/></svg>