<?xml version="1.0" encoding="UTF-8" standalone="no"?>
<!DOCTYPE svg PUBLIC "-//W3C//DTD SVG 1.1//EN" "http://www.w3.org/Graphics/SVG/1.1/DTD/svg11.dtd">
<svg width="100%" height="100%" viewBox="0 0 24 24" version="1.1" xmlns="http://www.w3.org/2000/svg" xmlns:xlink="http://www.w3.org/1999/xlink" xml:space="preserve" xmlns:serif="http://www.serif.com/" style="fill-rule:evenodd;clip-rule:evenodd;stroke-linejoin:round;stroke-miterlimit:2;">
    <g transform="matrix(1,0,0,1,-84,-56)">
        <g transform="matrix(1,0,0,1,28,0)">
            <g id="icon_hold_2" transform="matrix(1,0,0,1,56,56)">
                <rect x="0" y="0" width="24" height="24" style="fill:none;"/>
                <g id="Hold-Base" serif:id="Hold Base" transform="matrix(1,0,0,1,-56,0)">
                    <rect x="58" y="0" width="20" height="9" style="fill:rgb(255,138,0);fill-opacity:0.6;"/>
                </g>
                <g id="Hold-Rim" serif:id="Hold Rim" transform="matrix(0.1,0,0,1,-3.8,0)">
                    <path d="M74.564,0L74.564,9L58,9L58,0L74.564,0ZM258,0L258,9L241.436,9L241.436,0L258,0Z" style="fill:rgb(255,138,0);"/>
                </g>
                <g id="Caps-3" serif:id="Caps 3" transform="matrix(0.956522,0,0,1,1,0)">
                    <path d="M23,8.75L23,15.25C23,15.664 22.649,16 22.216,16L0.784,16C0.351,16 0,15.664 0,15.25L0,8.75C0,8.336 0.351,8 0.784,8L22.216,8C22.649,8 23,8.336 23,8.75Z" style="fill:rgb(121,229,255);"/>
                </g>
                <g id="Caps-2" serif:id="Caps 2" transform="matrix(1.22222,0,0,2.66134,-1.44444,-30.5384)">
                    <rect x="2" y="15" width="18" height="2" style="fill:rgb(78,172,247);"/>
                </g>
                <g id="Caps-31" serif:id="Caps 3" transform="matrix(1.22222,0,0,1.35626,-1.44444,-9.6573)">
                    <rect x="2" y="15" width="18" height="2" style="fill:rgb(0,147,231);"/>
                </g>
                <g id="Base-Note" serif:id="Base Note" transform="matrix(1,0,0,1,0,1)">
                    <rect x="4" y="7" width="16" height="8" style="fill:rgb(255,154,0);"/>
                </g>
                <g id="Shading" transform="matrix(0.888889,0,0,1.56816,2.22222,-12.1591)">
                    <rect x="2" y="15" width="18" height="2" style="fill:rgb(209,74,0);"/>
                </g>
            </g>
        </g>
    </g>
</svg>
