<?xml version="1.0" encoding="UTF-8" standalone="no"?>
<!DOCTYPE svg PUBLIC "-//W3C//DTD SVG 1.1//EN" "http://www.w3.org/Graphics/SVG/1.1/DTD/svg11.dtd">
<svg width="100%" height="100%" viewBox="0 0 24 24" version="1.1" xmlns="http://www.w3.org/2000/svg" xmlns:xlink="http://www.w3.org/1999/xlink" xml:space="preserve" xmlns:serif="http://www.serif.com/" style="fill-rule:evenodd;clip-rule:evenodd;stroke-linejoin:round;stroke-miterlimit:2;">
    <g transform="matrix(1,0,0,1,-196,0)">
        <g transform="matrix(1,0,0,1,28,0)">
            <g id="icon_snap_bwd_0" transform="matrix(-1,0,0,1,191.98,0)">
                <rect x="0" y="0" width="24" height="24" style="fill:none;"/>
                <g id="Caps-3" serif:id="Caps 3" transform="matrix(-0.956522,0,0,1,23,0)">
                    <path d="M23,8.75L23,15.25C23,15.664 22.649,16 22.216,16L0.784,16C0.351,16 0,15.664 0,15.25L0,8.75C0,8.336 0.351,8 0.784,8L22.216,8C22.649,8 23,8.336 23,8.75Z" style="fill:rgb(121,229,255);"/>
                </g>
                <g id="Caps-2" serif:id="Caps 2" transform="matrix(-1.22222,0,0,2.66134,25.4444,-30.5384)">
                    <rect x="2" y="15" width="18" height="2" style="fill:rgb(78,172,247);"/>
                </g>
                <g id="Caps-31" serif:id="Caps 3" transform="matrix(-1.22222,0,0,1.35626,25.4444,-9.6573)">
                    <rect x="2" y="15" width="18" height="2" style="fill:rgb(0,147,231);"/>
                </g>
                <g id="Base-Note" serif:id="Base Note" transform="matrix(-1,0,0,1,23.9801,1)">
                    <path d="M20,7L20,15L4,15L4,7L20,7ZM16,0L18.5,2L21,0L21,4L18.5,6L16,4L16,0ZM10,0L12,2L14,0L14,4L12,6L10,4L10,0ZM3,0L5.5,2L8,0L8,4L5.5,6L3,4L3,0Z" style="fill:rgb(255,74,238);"/>
                </g>
                <g id="Shading" transform="matrix(-0.888889,0,0,1.56816,21.7579,-12.1591)">
                    <rect x="2" y="15" width="18" height="2" style="fill:rgb(209,10,183);"/>
                </g>
            </g>
        </g>
    </g>
</svg>
