<?xml version="1.0" encoding="UTF-8" standalone="no"?>
<!DOCTYPE svg PUBLIC "-//W3C//DTD SVG 1.1//EN" "http://www.w3.org/Graphics/SVG/1.1/DTD/svg11.dtd">
<svg width="100%" height="100%" viewBox="0 0 24 24" version="1.1" xmlns="http://www.w3.org/2000/svg" xmlns:xlink="http://www.w3.org/1999/xlink" xml:space="preserve" xmlns:serif="http://www.serif.com/" style="fill-rule:evenodd;clip-rule:evenodd;stroke-linejoin:round;stroke-miterlimit:2;">
    <g transform="matrix(1,0,0,1,-112,0)">
        <g transform="matrix(1,0,0,1,28,0)">
            <g id="icon_slide_clw_0" transform="matrix(-1,0,0,1,107.98,0)">
                <rect x="0" y="0" width="24" height="24" style="fill:none;"/>
                <g id="Caps-3" serif:id="Caps 3" transform="matrix(-0.956522,0,0,1,23,0)">
                    <path d="M23,8.75L23,15.25C23,15.664 22.649,16 22.216,16L0.784,16C0.351,16 0,15.664 0,15.25L0,8.75C0,8.336 0.351,8 0.784,8L22.216,8C22.649,8 23,8.336 23,8.75Z" style="fill:rgb(121,229,255);"/>
                </g>
                <g id="Caps-2" serif:id="Caps 2" transform="matrix(-1.22222,0,0,2.66134,25.4444,-30.5384)">
                    <rect x="2" y="15" width="18" height="2" style="fill:rgb(78,172,247);"/>
                </g>
                <g id="Caps-31" serif:id="Caps 3" transform="matrix(-1.22222,0,0,1.35626,25.4444,-9.6573)">
                    <rect x="2" y="15" width="18" height="2" style="fill:rgb(0,147,231);"/>
                </g>
                <g id="Base-Note" serif:id="Base Note" transform="matrix(-1,0,0,1,23.9801,1)">
                    <path d="M20,7L20,15L4,15L4,7L20,7ZM9.067,3L11.762,0.473L16.067,1.053L13.664,3L16.067,4.947L11.762,5.527L9.067,3ZM16.04,3L18.02,0.788L21.98,1.303L20.665,3L21.98,4.697L18.02,5.212L16.04,3ZM1.94,3L4.94,0L9.94,0.417L6.681,3L9.94,5.583L4.94,6L1.94,3Z" style="fill:rgb(255,74,238);"/>
                </g>
                <g id="Shading" transform="matrix(-0.888889,0,0,1.56816,21.7579,-12.1591)">
                    <rect x="2" y="15" width="18" height="2" style="fill:rgb(209,10,183);"/>
                </g>
            </g>
        </g>
    </g>
</svg>
