<?xml version="1.0" encoding="UTF-8" standalone="no"?><!DOCTYPE svg PUBLIC "-//W3C//DTD SVG 1.1//EN" "http://www.w3.org/Graphics/SVG/1.1/DTD/svg11.dtd"><svg width="100%" height="100%" viewBox="0 0 6 6" version="1.1" xmlns="http://www.w3.org/2000/svg" xmlns:xlink="http://www.w3.org/1999/xlink" xml:space="preserve" xmlns:serif="http://www.serif.com/" style="fill-rule:evenodd;clip-rule:evenodd;stroke-linejoin:round;stroke-miterlimit:2;"><rect id="icon_lane_show" x="0" y="0" width="5.76" height="5.76" style="fill:none;"/><path id="LaneShow" d="M5.52,2.52l-0,0.84c-0,0.265 -0.215,0.48 -0.48,0.48l-0.078,0l-0.002,0.001l-0.001,-0.001l-1.197,0l-0.002,0.001l-0.001,-0.001l-1.197,0l-0.002,0.001l-0.001,-0.001l-1.197,0l-0.002,0.001l-0.001,-0.001l-0.639,0c-0.265,0 -0.48,-0.215 -0.48,-0.48l-0,-0.96c-0,-0.265 0.215,-0.48 0.48,-0.48l0.078,-0l0.002,-0.001l0.001,0.001l1.197,-0l0.002,-0.001l0.001,0.001l1.197,-0l0.002,-0.001l0.001,0.001l0.279,-0l-0,0.36l-0.099,-0l0.6,1.2l0.798,0l-0.24,-0.48l0.402,-0l0.207,0.413c0.008,-0.016 0.012,-0.034 0.012,-0.053l-0,-0.84l0.36,-0Zm-4.908,-0.173c-0.008,0.016 -0.012,0.034 -0.012,0.053l0,0.96c0,0.066 0.054,0.12 0.12,0.12l0.459,0l-0.567,-1.133Zm2.367,-0.067l-0.798,-0l0.6,1.2l0.798,0l-0.6,-1.2Zm-1.2,-0l-0.798,-0l0.6,1.2l0.798,0l-0.6,-1.2Zm2.541,-0.12l-0.48,-0l0,-0.48l0.48,-0l0,-0.48l0.48,-0l0,0.48l0.48,-0l0,0.48l-0.48,-0l0,0.48l-0.48,-0l0,-0.48Z" style="fill:#bda8ff;"/></svg>