<?xml version="1.0" encoding="UTF-8" standalone="no"?><!DOCTYPE svg PUBLIC "-//W3C//DTD SVG 1.1//EN" "http://www.w3.org/Graphics/SVG/1.1/DTD/svg11.dtd"><svg width="100%" height="100%" viewBox="0 0 6 6" version="1.1" xmlns="http://www.w3.org/2000/svg" xmlns:xlink="http://www.w3.org/1999/xlink" xml:space="preserve" xmlns:serif="http://www.serif.com/" style="fill-rule:evenodd;clip-rule:evenodd;stroke-linejoin:round;stroke-miterlimit:2;"><rect id="icon_slide_clw_7" x="0.235" y="0" width="5.76" height="5.76" style="fill:none;"/><path id="Caps-3" serif:id="Caps 3" d="M5.755,2.1l0,1.56c0,0.099 -0.08,0.18 -0.18,0.18l-4.92,-0c-0.099,-0 -0.18,-0.081 -0.18,-0.18l0,-1.56c0,-0.099 0.081,-0.18 0.18,-0.18l4.92,-0c0.1,-0 0.18,0.081 0.18,0.18Z" style="fill:#79e5ff;"/><rect id="Caps-2" serif:id="Caps 2" x="0.475" y="2.246" width="5.28" height="1.277" style="fill:#4eacf7;"/><rect id="Caps-31" serif:id="Caps 3" x="0.475" y="2.56" width="5.28" height="0.651" style="fill:#0093e7;"/><rect id="Base-Note" serif:id="Base Note" x="1.2" y="1.92" width="3.84" height="1.92" style="fill:#ff5800;"/><rect id="Shading" x="1.2" y="2.727" width="3.84" height="0.753" style="fill:#d11200;"/><path id="Slide" d="M2.416,0.96l0.647,0.606l1.033,-0.139l-0.577,-0.467l0.577,-0.467l-1.033,-0.139l-0.647,0.606Zm1.674,0l0.475,0.531l0.95,-0.124l-0.315,-0.407l0.315,-0.407l-0.95,-0.124l-0.475,0.531Zm-3.384,0l0.72,0.72l1.2,-0.1l-0.783,-0.62l0.783,-0.62l-1.2,-0.1l-0.72,0.72Z" style="fill:#e83500;"/></svg>