<?xml version="1.0" encoding="UTF-8" standalone="no"?><!DOCTYPE svg PUBLIC "-//W3C//DTD SVG 1.1//EN" "http://www.w3.org/Graphics/SVG/1.1/DTD/svg11.dtd"><svg width="100%" height="100%" viewBox="0 0 6 6" version="1.1" xmlns="http://www.w3.org/2000/svg" xmlns:xlink="http://www.w3.org/1999/xlink" xml:space="preserve" xmlns:serif="http://www.serif.com/" style="fill-rule:evenodd;clip-rule:evenodd;stroke-linejoin:round;stroke-miterlimit:2;"><rect id="icon_snap_bwd_1" x="0.235" y="0" width="5.76" height="5.76" style="fill:none;"/><path id="Caps-3" serif:id="Caps 3" d="M5.755,2.1l0,1.56c0,0.099 -0.08,0.18 -0.18,0.18l-4.92,-0c-0.099,-0 -0.18,-0.081 -0.18,-0.18l0,-1.56c0,-0.099 0.081,-0.18 0.18,-0.18l4.92,-0c0.1,-0 0.18,0.081 0.18,0.18Z" style="fill:#79e5ff;"/><rect id="Caps-2" serif:id="Caps 2" x="0.475" y="2.252" width="5.28" height="1.277" style="fill:#4eacf7;"/><rect id="Caps-31" serif:id="Caps 3" x="0.475" y="2.565" width="5.28" height="0.651" style="fill:#0093e7;"/><rect id="Base-Note" serif:id="Base Note" x="1.2" y="1.92" width="3.84" height="1.92" style="fill:#ffe452;"/><rect id="Shading" x="1.2" y="2.727" width="3.84" height="0.753" style="fill:#d1a60f;"/><path id="Snap" d="M4.075,0.24l0.6,0.48l0.6,-0.48l0,0.96l-0.6,0.48l-0.6,-0.48l0,-0.96Zm-1.44,0l0.48,0.48l0.48,-0.48l0,0.96l-0.48,0.48l-0.48,-0.48l0,-0.96Zm-1.68,0l0.6,0.48l0.6,-0.48l0,0.96l-0.6,0.48l-0.6,-0.48l0,-0.96Z" style="fill:#e8c530;"/><path id="Snap-Outline" serif:id="Snap Outline" d="M2.635,0.24l0.48,0.48l0.48,-0.48l0,0.96l-0.48,0.48l-0.48,-0.48l0,-0.96Zm0.24,0.579l0,0.282l0.24,0.24l0.24,-0.24l0,-0.282l-0.24,0.24l-0.24,-0.24Zm1.2,-0.579l0.6,0.48l0.6,-0.48l0,0.96l-0.6,0.48l-0.6,-0.48l0,-0.96Zm0.24,0.499l0,0.346l0.36,0.288l0.36,-0.288l0,-0.346l-0.36,0.288l-0.36,-0.288Zm-3.36,-0.499l0.6,0.48l0.6,-0.48l0,0.96l-0.6,0.48l-0.6,-0.48l0,-0.96Zm0.24,0.499l0,0.346l0.36,0.288l0.36,-0.288l0,-0.346l-0.36,0.288l-0.36,-0.288Z" style="fill:#ffe452;"/></svg>