<?xml version="1.0" encoding="UTF-8" standalone="no"?>
<!DOCTYPE svg PUBLIC "-//W3C//DTD SVG 1.1//EN" "http://www.w3.org/Graphics/SVG/1.1/DTD/svg11.dtd">
<svg width="100%" height="100%" viewBox="0 0 24 24" version="1.1" xmlns="http://www.w3.org/2000/svg" xmlns:xlink="http://www.w3.org/1999/xlink" xml:space="preserve" xmlns:serif="http://www.serif.com/" style="fill-rule:evenodd;clip-rule:evenodd;stroke-linejoin:round;stroke-miterlimit:2;">
    <g transform="matrix(1,0,0,1,28,0)">
        <g id="icon_rnote" transform="matrix(1,0,0,1,-28,0)">
            <rect x="0" y="0" width="24" height="24" style="fill:none;"/>
            <clipPath id="_clip1">
                <rect x="0" y="0" width="24" height="24"/>
            </clipPath>
            <g clip-path="url(#_clip1)">
                <g transform="matrix(0.916667,0,0,1,1,-5.32907e-15)">
                    <path d="M24,8L24,16C24,16.552 23.511,17 22.909,17L1.091,17C0.489,17 0,16.552 0,16L0,8C0,7.448 0.489,7 1.091,7L22.909,7C23.511,7 24,7.448 24,8Z" style="fill:rgb(255,249,205);"/>
                </g>
                <g transform="matrix(1,0,0,1.2,-6.21725e-15,-2.4)">
                    <path d="M24,8.667L24,15.333C24,16.253 23.104,17 22,17L2,17C0.896,17 0,16.253 0,15.333L0,8.667C0,7.747 0.896,7 2,7L22,7C23.104,7 24,7.747 24,8.667Z" style="fill:rgb(255,249,205);fill-opacity:0.5;"/>
                </g>
            </g>
        </g>
    </g>
</svg>
