<?xml version="1.0" encoding="UTF-8" standalone="no"?>
<!DOCTYPE svg PUBLIC "-//W3C//DTD SVG 1.1//EN" "http://www.w3.org/Graphics/SVG/1.1/DTD/svg11.dtd">
<svg width="100%" height="100%" viewBox="0 0 24 24" version="1.1" xmlns="http://www.w3.org/2000/svg" xmlns:xlink="http://www.w3.org/1999/xlink" xml:space="preserve" xmlns:serif="http://www.serif.com/" style="fill-rule:evenodd;clip-rule:evenodd;stroke-linejoin:round;stroke-miterlimit:2;">
    <g transform="matrix(1,0,0,1,-56,-280)">
        <g transform="matrix(1,0,0,1,28,0)">
            <g id="icon_chain_10" transform="matrix(1,0,0,1,28,280)">
                <rect x="0" y="0" width="24" height="24" style="fill:none;"/>
                <g id="Caps-3" serif:id="Caps 3" transform="matrix(0.956522,0,0,1,1,0)">
                    <path d="M23,8.75L23,15.25C23,15.664 22.649,16 22.216,16L0.784,16C0.351,16 0,15.664 0,15.25L0,8.75C0,8.336 0.351,8 0.784,8L22.216,8C22.649,8 23,8.336 23,8.75Z" style="fill:rgb(121,229,255);"/>
                </g>
                <g id="Caps-2" serif:id="Caps 2" transform="matrix(1.22222,0,0,2.66134,-1.44444,-30.5599)">
                    <rect x="2" y="15" width="18" height="2" style="fill:rgb(78,172,247);"/>
                </g>
                <g id="Caps-31" serif:id="Caps 3" transform="matrix(1.22222,0,0,1.35626,-1.44444,-9.67876)">
                    <rect x="2" y="15" width="18" height="2" style="fill:rgb(0,147,231);"/>
                </g>
                <g id="Base-Note" serif:id="Base Note" transform="matrix(1,0,0,1,0,1)">
                    <rect x="4" y="7" width="16" height="8" style="fill:rgb(0,81,255);"/>
                </g>
                <g id="Shading" transform="matrix(0.888889,0,0,1.56816,2.22222,-12.1591)">
                    <rect x="2" y="15" width="18" height="2" style="fill:rgb(0,14,209);"/>
                </g>
                <g id="Chain" transform="matrix(1,0,0,1,-28,0)">
                    <path d="M32,8L34,8L32,16L32,8ZM40,8L42,8L40,16L38,16L40,8ZM44,8L46,8L44,16L42,16L44,8ZM36,8L38,8L36,16L34,16L36,8ZM46,16L48,8L48,16L46,16Z" style="fill-opacity:0.5;"/>
                </g>
            </g>
        </g>
    </g>
</svg>
