<?xml version="1.0" encoding="UTF-8" standalone="no"?>
<!DOCTYPE svg PUBLIC "-//W3C//DTD SVG 1.1//EN" "http://www.w3.org/Graphics/SVG/1.1/DTD/svg11.dtd">
<svg width="100%" height="100%" viewBox="0 0 24 24" version="1.1" xmlns="http://www.w3.org/2000/svg" xmlns:xlink="http://www.w3.org/1999/xlink" xml:space="preserve" xmlns:serif="http://www.serif.com/" style="fill-rule:evenodd;clip-rule:evenodd;stroke-linejoin:round;stroke-miterlimit:2;">
    <g transform="matrix(1,0,0,1,-140,-84)">
        <g transform="matrix(1,0,0,1,28,0)">
            <g id="icon_slide_ccw_3" transform="matrix(1,0,0,1,111.98,84)">
                <rect x="0" y="0" width="24" height="24" style="fill:none;"/>
                <g id="Caps-3" serif:id="Caps 3" transform="matrix(0.956522,0,0,1,1,0)">
                    <path d="M23,8.75L23,15.25C23,15.664 22.649,16 22.216,16L0.784,16C0.351,16 0,15.664 0,15.25L0,8.75C0,8.336 0.351,8 0.784,8L22.216,8C22.649,8 23,8.336 23,8.75Z" style="fill:rgb(121,229,255);"/>
                </g>
                <g id="Caps-2" serif:id="Caps 2" transform="matrix(1.22222,0,0,2.66134,-1.44444,-30.5384)">
                    <rect x="2" y="15" width="18" height="2" style="fill:rgb(78,172,247);"/>
                </g>
                <g id="Caps-31" serif:id="Caps 3" transform="matrix(1.22222,0,0,1.35626,-1.44444,-9.6573)">
                    <rect x="2" y="15" width="18" height="2" style="fill:rgb(0,147,231);"/>
                </g>
                <g id="Base-Note" serif:id="Base Note" transform="matrix(1,0,0,1,0.0199009,1)">
                    <path d="M20,7L20,15L4,15L4,7L20,7ZM22.02,3L19.02,6L14.02,5.583L17.279,3L14.02,0.417L19.02,0L22.02,3ZM14.893,3L12.198,5.527L7.893,4.947L10.297,3L7.893,1.053L12.198,0.473L14.893,3ZM7.92,3L5.94,5.212L1.98,4.697L3.295,3L1.98,1.303L5.94,0.788L7.92,3Z" style="fill:rgb(57,210,52);"/>
                </g>
                <g id="Shading" transform="matrix(0.888889,0,0,1.56816,2.24212,-12.1591)">
                    <rect x="2" y="15" width="18" height="2" style="fill:rgb(2,141,1);"/>
                </g>
            </g>
        </g>
    </g>
</svg>
