<?xml version="1.0" encoding="UTF-8" standalone="no"?><!DOCTYPE svg PUBLIC "-//W3C//DTD SVG 1.1//EN" "http://www.w3.org/Graphics/SVG/1.1/DTD/svg11.dtd"><svg width="100%" height="100%" viewBox="0 0 6 6" version="1.1" xmlns="http://www.w3.org/2000/svg" xmlns:xlink="http://www.w3.org/1999/xlink" xml:space="preserve" xmlns:serif="http://www.serif.com/" style="fill-rule:evenodd;clip-rule:evenodd;stroke-linejoin:round;stroke-miterlimit:2;"><rect id="icon_chain_9" x="0" y="0" width="5.76" height="5.76" style="fill:none;"/><path id="Caps-3" serif:id="Caps 3" d="M5.52,2.1l0,1.56c0,0.099 -0.081,0.18 -0.18,0.18l-4.92,-0c-0.099,-0 -0.18,-0.081 -0.18,-0.18l0,-1.56c0,-0.099 0.081,-0.18 0.18,-0.18l4.92,-0c0.099,-0 0.18,0.081 0.18,0.18Z" style="fill:#79e5ff;"/><rect id="Caps-2" serif:id="Caps 2" x="0.24" y="2.246" width="5.28" height="1.277" style="fill:#4eacf7;"/><rect id="Caps-31" serif:id="Caps 3" x="0.24" y="2.56" width="5.28" height="0.651" style="fill:#0093e7;"/><rect id="Base-Note" serif:id="Base Note" x="0.96" y="1.92" width="3.84" height="1.92" style="fill:#4aa170;"/><rect id="Shading" x="0.96" y="2.727" width="3.84" height="0.753" style="fill:#0a5123;"/><path id="Chain" d="M0.96,1.92l0.48,0l-0.48,1.92l0,-1.92Zm1.92,-0l0.48,-0l-0.48,1.92l-0.48,0l0.48,-1.92Zm0.96,0l0.48,0l-0.48,1.92l-0.48,0l0.48,-1.92Zm-1.92,0l0.48,0l-0.48,1.92l-0.48,0l0.48,-1.92Zm2.4,1.92l0.48,-1.92l0,1.92l-0.48,0Z" style="fill-opacity:0.5;"/></svg>